<svg width="16" height="16" viewBox="-2 -2 16 16" fill="none" xmlns="http://www.w3.org/2000/svg">
<path d="M5.31022 8.89999L1.21013 4.36999C1.10199 4.24504 1.0337 4.09066 1.01384 3.92662C0.99397 3.76257 1.02349 3.59633 1.09868 3.44918C1.17386 3.30203 1.29126 3.18067 1.43583 3.10065C1.58041 3.02062 1.74559 2.98558 1.9102 2.99999H10.0901C10.2547 2.98558 10.4199 3.02062 10.5645 3.10065C10.7091 3.18067 10.8265 3.30203 10.9017 3.44918C10.9768 3.59633 11.0064 3.76257 10.9865 3.92662C10.9666 4.09066 10.8983 4.24504 10.7902 4.36999L6.69011 8.89999C6.6021 8.99512 6.49549 9.07102 6.37675 9.12293C6.25801 9.17484 6.12976 9.20163 6.00016 9.20163C5.87057 9.20163 5.74232 9.17484 5.62358 9.12293C5.50484 9.07102 5.39823 8.99512 5.31022 8.89999Z" fill="white"/>
</svg>
