<svg width="16" height="16" viewBox="-2 -2 16 16" fill="none" xmlns="http://www.w3.org/2000/svg">
<path d="M8.90002 6.68998L4.36999 10.79C4.24504 10.8981 4.09067 10.9665 3.92663 10.9864C3.76258 11.0062 3.59636 10.9767 3.44921 10.9015C3.30206 10.8263 3.18066 10.7089 3.10064 10.5643C3.02061 10.4198 2.98558 10.2546 2.99999 10.09V1.90997C2.98558 1.74536 3.02061 1.58019 3.10064 1.43562C3.18066 1.29104 3.30206 1.17364 3.44921 1.09846C3.59636 1.02327 3.76258 0.993723 3.92663 1.01359C4.09067 1.03346 4.24504 1.10184 4.36999 1.20997L8.90002 5.30997C8.99514 5.39798 9.07101 5.50471 9.12292 5.62345C9.17483 5.74219 9.20165 5.87038 9.20165 5.99998C9.20165 6.12957 9.17483 6.25776 9.12292 6.3765C9.07101 6.49524 8.99514 6.60197 8.90002 6.68998Z" fill="white"/>
</svg>
