<svg width="16" height="16" viewBox="0 0 16 16" fill="none" xmlns="http://www.w3.org/2000/svg">
<path d="M13.93 3.00001H2C1.73478 3.00001 1.48043 3.10538 1.29289 3.29292C1.10536 3.48046 1 3.73479 1 4.00001V11.92C1.0026 12.0645 1.03364 12.207 1.09134 12.3395C1.14904 12.4719 1.23227 12.5917 1.33627 12.692C1.44028 12.7923 1.56303 12.8711 1.6975 12.924C1.83198 12.9768 1.97554 13.0027 2.12 13H13.88C14.0245 13.0027 14.168 12.9768 14.3025 12.924C14.437 12.8711 14.5597 12.7923 14.6637 12.692C14.7677 12.5917 14.851 12.4719 14.9087 12.3395C14.9664 12.207 14.9974 12.0645 15 11.92V4.00001C15.0003 3.86259 14.9723 3.72657 14.9178 3.60044C14.8632 3.47432 14.7832 3.36078 14.6828 3.26695C14.5824 3.17311 14.4637 3.10099 14.3342 3.05507C14.2047 3.00914 14.0671 2.99039 13.93 3.00001ZM5.19 6.85002H4.19C4.19 6.46002 4.19 6.15 4.19 5.99C4.1849 5.84669 4.12501 5.7108 4.02268 5.61033C3.92035 5.50986 3.78338 5.45249 3.64 5.45002C3.5134 5.44887 3.39073 5.49395 3.29499 5.57679C3.19926 5.65964 3.13704 5.77455 3.12 5.90001C3.09245 6.23277 3.09245 6.56724 3.12 6.90001V9.07002C3.09677 9.43153 3.1203 9.79452 3.19 10.15C3.22053 10.2592 3.2859 10.3554 3.37616 10.424C3.46642 10.4926 3.57663 10.5298 3.69 10.53C3.83678 10.5248 3.97562 10.4621 4.07663 10.3555C4.17764 10.2489 4.23272 10.1068 4.23 9.96C4.23 9.78 4.23 9.28 4.23 8.96H5.23V9.35002C5.28196 9.80729 5.1985 10.2697 4.99 10.68C4.86679 10.8979 4.69299 11.0829 4.48325 11.2194C4.2735 11.356 4.03399 11.44 3.78492 11.4646C3.53585 11.4891 3.28453 11.4533 3.05219 11.3603C2.81985 11.2672 2.61331 11.1197 2.45 10.93C2.11 10.52 2.04 10.19 2.04 9.13002V6.82002C2.04 5.75002 2.11 5.42002 2.45 5.01002C2.61313 4.82404 2.81741 4.67868 3.04659 4.58552C3.27576 4.49237 3.52351 4.45398 3.77013 4.4734C4.01675 4.49282 4.25544 4.56952 4.46721 4.6974C4.67898 4.82527 4.85798 5.00079 4.99 5.21C5.19373 5.59311 5.27737 6.02869 5.23 6.46L5.19 6.85002ZM14 8.00001H12V10H11V8.00001H9V10H8V8.00001H6V7.00001H8V5.00001H9V7.00001H11V5.00001H12V7.00001H14V8.00001Z" fill="white"/>
</svg>
