<?xml version="1.0" encoding="utf-8"?>

<!DOCTYPE svg PUBLIC "-//W3C//DTD SVG 1.0//EN" "http://www.w3.org/TR/2001/REC-SVG-20010904/DTD/svg10.dtd">
<!-- Uploaded to: SVG Repo, www.svgrepo.com, Generator: SVG Repo Mixer Tools -->
<svg version="1.0" id="Layer_1" xmlns="http://www.w3.org/2000/svg" xmlns:xlink="http://www.w3.org/1999/xlink" 
	 width="800px" height="800px" viewBox="0 0 64 64" enable-background="new 0 0 64 64" xml:space="preserve">
<g>
	<path fill="#45AAB8" d="M51.312,35.312l-16,16C32.418,54.211,28.418,56,24,56c-8.836,0-16-7.164-16-16
		c0-4.418,1.789-8.418,4.688-11.312l16-16C31.582,9.789,35.582,8,40,8c8.836,0,16,7.164,16,16
		C56,28.418,54.211,32.418,51.312,35.312z"/>
	<path fill="#394240" d="M40,0c-6.625,0-12.625,2.688-16.969,7.031l-5.172,5.172L6.828,1.172c-1.562-1.562-4.094-1.562-5.656,0
		s-1.562,4.094,0,5.656l11.031,11.031l-5.172,5.172C2.688,27.375,0,33.375,0,40c0,13.254,10.746,24,24,24
		c6.625,0,12.625-2.688,16.969-7.031l16-16C61.312,36.625,64,30.625,64,24C64,10.746,53.254,0,40,0z M51.312,35.312l-16,16
		C32.418,54.211,28.418,56,24,56c-8.836,0-16-7.164-16-16c0-4.418,1.789-8.418,4.688-11.312l16-16C31.582,9.789,35.582,8,40,8
		c8.836,0,16,7.164,16,16C56,28.418,54.211,32.418,51.312,35.312z"/>
	<circle fill="#394240" cx="44" cy="20" r="4"/>
	<path fill="#394240" d="M36,32h-4v-4c0-2.211-1.789-4-4-4s-4,1.789-4,4v4h-4c-2.211,0-4,1.789-4,4s1.789,4,4,4h4v4
		c0,2.211,1.789,4,4,4s4-1.789,4-4v-4h4c2.211,0,4-1.789,4-4S38.211,32,36,32z"/>
</g>
</svg>