<?xml version="1.0" encoding="UTF-8" standalone="no"?>
<!-- Created with Inkscape (http://www.inkscape.org/) -->

<svg
   version="1.1"
   id="svg80725"
   width="1200"
   height="1200"
   viewBox="0 0 1200 1200"
   sodipodi:docname="solar-system-publicdomainvectors.org.svg"
   inkscape:version="1.2 (dc2aedaf03, 2022-05-15)"
   xmlns:inkscape="http://www.inkscape.org/namespaces/inkscape"
   xmlns:sodipodi="http://sodipodi.sourceforge.net/DTD/sodipodi-0.dtd"
   xmlns="http://www.w3.org/2000/svg"
   xmlns:svg="http://www.w3.org/2000/svg">
  <defs
     id="defs80729">
    <clipPath
       clipPathUnits="userSpaceOnUse"
       id="clipPath80743">
      <path
         d="M 0,900 H 900 V 0 H 0 Z"
         id="path80741" />
    </clipPath>
  </defs>
  <sodipodi:namedview
     id="namedview80727"
     pagecolor="#ffffff"
     bordercolor="#000000"
     borderopacity="0.25"
     inkscape:showpageshadow="2"
     inkscape:pageopacity="0.0"
     inkscape:pagecheckerboard="0"
     inkscape:deskcolor="#d1d1d1"
     showgrid="false"
     inkscape:zoom="0.6975"
     inkscape:cx="600"
     inkscape:cy="600.71685"
     inkscape:window-width="1920"
     inkscape:window-height="1017"
     inkscape:window-x="-8"
     inkscape:window-y="-8"
     inkscape:window-maximized="1"
     inkscape:current-layer="g80733">
    <inkscape:page
       x="0"
       y="0"
       id="page80731"
       width="1200"
       height="1200" />
  </sodipodi:namedview>
  <g
     id="g80733"
     inkscape:groupmode="layer"
     inkscape:label="Page 1"
     transform="matrix(1.3333333,0,0,-1.3333333,0,1200)">
    <path
       d="M 0.94,0 H 900 V 900 H 0.94 Z"
       style="fill:#1b1c1f;fill-opacity:1;fill-rule:nonzero;stroke:none"
       id="path80735" />
    <g
       id="g80737">
      <g
         id="g80739"
         clip-path="url(#clipPath80743)">
        <g
           id="g80745"
           transform="translate(463.0752,538.2715)">
          <path
             d="m 0,0 h -23.307 l -22.505,-6.03 -20.174,-11.65 -16.479,-16.478 -11.65,-20.177 -6.032,-22.508 v -23.304 l 6.03,-22.505 11.65,-20.175 16.475,-16.479 20.18,-11.649 22.507,-6.031 H 0 l 22.505,6.028 20.175,11.647 16.477,16.479 11.653,20.18 6.032,22.505 V -76.84 L 70.81,-54.338 59.163,-34.161 42.685,-17.683 22.505,-6.031 Z M -11.652,28.502 C -6.669,22.377 -2.579,15.58 0.969,8.378 c 5.249,6.241 11,11.806 17.659,16.138 3.229,-7.208 5.417,-14.831 6.982,-22.704 6.687,4.669 13.682,8.556 21.235,11.017 1.255,-7.799 1.397,-15.73 0.869,-23.74 7.668,2.78 15.43,4.723 23.361,5.145 -0.807,-7.856 -2.724,-15.552 -5.307,-23.154 8.129,0.701 16.128,0.569 23.902,-1.078 -2.815,-7.377 -6.656,-14.316 -11.118,-20.99 8.03,-1.426 15.724,-3.625 22.803,-7.225 -4.626,-6.401 -10.133,-12.109 -16.17,-17.401 7.388,-3.457 14.25,-7.571 20.16,-12.879 -6.126,-4.985 -12.925,-9.075 -20.126,-12.623 6.24,-5.252 11.807,-11 16.138,-17.659 -7.209,-3.23 -14.831,-5.417 -22.703,-6.983 4.668,-6.686 8.556,-13.683 11.015,-21.234 -7.798,-1.255 -15.729,-1.398 -23.738,-0.867 2.779,-7.67 4.723,-15.433 5.144,-23.364 -7.856,0.808 -15.552,2.725 -23.154,5.305 0.701,-8.127 0.571,-16.126 -1.076,-23.899 -7.38,2.814 -14.319,6.656 -20.991,11.117 -1.427,-8.029 -3.625,-15.724 -7.224,-22.803 -6.402,4.627 -12.111,10.134 -17.401,16.17 -3.457,-7.388 -7.571,-14.25 -12.881,-20.159 -4.987,6.128 -9.073,12.925 -12.621,20.124 -5.252,-6.241 -11.003,-11.804 -17.659,-16.137 -3.233,7.209 -5.42,14.831 -6.985,22.703 -6.684,-4.668 -13.682,-8.555 -21.235,-11.015 -1.254,7.798 -1.394,15.729 -0.867,23.741 -7.668,-2.781 -15.43,-4.727 -23.361,-5.147 0.806,7.854 2.723,15.553 5.305,23.155 -8.13,-0.703 -16.129,-0.572 -23.899,1.076 2.812,7.383 6.654,14.318 11.117,20.99 -8.033,1.428 -15.726,3.625 -22.805,7.225 4.627,6.403 10.133,12.108 16.17,17.4 -7.388,3.457 -14.251,7.571 -20.157,12.884 6.126,4.984 12.922,9.071 20.124,12.619 -6.241,5.251 -11.806,11.002 -16.14,17.661 7.209,3.228 14.832,5.417 22.706,6.98 -4.667,6.689 -8.555,13.684 -11.015,21.237 7.798,1.252 15.729,1.395 23.739,0.87 -2.782,7.668 -4.725,15.428 -5.145,23.359 7.854,-0.806 15.55,-2.723 23.152,-5.306 -0.701,8.129 -0.568,16.13 1.076,23.902 7.382,-2.814 14.321,-6.657 20.993,-11.119 1.425,8.032 3.622,15.724 7.224,22.805 6.402,-4.628 12.109,-10.135 17.401,-16.17 3.457,7.387 7.569,14.25 12.882,20.157"
             style="fill:#ffd633;fill-opacity:1;fill-rule:evenodd;stroke:none"
             id="path80747" />
        </g>
        <g
           id="g80749"
           transform="translate(451.4229,550.666)">
          <path
             d="m 0,0 c 55.719,0 100.886,-45.168 100.886,-100.887 0,-55.721 -45.167,-100.888 -100.886,-100.888 -55.718,0 -100.888,45.167 -100.888,100.888 C -100.888,-45.169 -55.718,0 0,0"
             style="fill:#f5ac00;fill-opacity:1;fill-rule:evenodd;stroke:none"
             id="path80751" />
        </g>
        <g
           id="g80753"
           transform="translate(438.9014,542.8193)">
          <path
             d="m 0,0 c 36.087,0 59.44,-29.254 52.165,-65.341 -7.273,-36.084 -42.425,-65.337 -78.509,-65.337 -36.087,0 -59.443,29.253 -52.167,65.337 C -71.236,-29.254 -36.085,0 0,0"
             style="fill:#ffcc00;fill-opacity:1;fill-rule:evenodd;stroke:none"
             id="path80755" />
        </g>
        <g
           id="g80757"
           transform="translate(513.8516,529.0371)">
          <path
             d="m 0,0 c 23.422,-18.475 38.457,-47.11 38.457,-79.258 0,-55.722 -45.167,-100.889 -100.886,-100.889 -32.138,0 -60.768,15.026 -79.245,38.438 17.174,-13.547 38.861,-21.628 62.431,-21.628 55.719,0 100.886,45.17 100.886,100.888 C 21.643,-38.868 13.554,-17.18 0,0"
             style="fill:#e39400;fill-opacity:1;fill-rule:evenodd;stroke:none"
             id="path80759" />
        </g>
        <g
           id="g80761"
           transform="translate(691.0146,541.7666)">
          <path
             d="m 0,0 c -61.209,24.601 -145.913,39.819 -239.592,39.819 -93.681,0 -178.385,-15.218 -239.591,-39.819 -59.689,-23.99 -96.607,-56.548 -96.607,-91.988 0,-35.442 36.918,-68 96.607,-91.991 61.206,-24.6 145.91,-39.819 239.591,-39.819 93.679,0 178.383,15.219 239.592,39.819 59.688,23.991 96.605,56.549 96.605,91.991 C 96.605,-56.548 59.688,-23.99 0,0 m -239.592,50.919 c 95.059,0 181.236,-15.532 243.709,-40.645 64.004,-25.722 103.588,-61.844 103.588,-102.262 0,-40.42 -39.584,-76.543 -103.588,-102.265 -62.473,-25.112 -148.65,-40.644 -243.709,-40.644 -95.06,0 -181.235,15.532 -243.711,40.644 -64.001,25.722 -103.587,61.845 -103.587,102.265 0,40.418 39.586,76.54 103.587,102.262 62.476,25.113 148.651,40.645 243.711,40.645"
             style="fill:#4d4d4d;fill-opacity:1;fill-rule:evenodd;stroke:none"
             id="path80763" />
        </g>
        <g
           id="g80765"
           transform="translate(385.6426,597.8672)">
          <path
             d="m 0,0 c 98.181,44.358 194.371,68.587 270.626,71.899 78.181,3.394 135.974,-15.324 154.849,-56.961 18.864,-41.624 -5.15,-97.414 -59.23,-153.966 -52.952,-55.374 -134.997,-111.968 -233.578,-156.654 l -1.108,-0.499 c -98.182,-44.359 -194.372,-68.587 -270.624,-71.898 -78.183,-3.394 -135.975,15.323 -154.849,56.962 -18.866,41.624 5.147,97.411 59.227,153.964 52.954,55.374 134.997,111.969 233.581,156.655 z m 3.452,-10.598 -0.011,-0.004 c -97.278,-44.095 -178.091,-99.789 -230.107,-154.181 -50.892,-53.221 -73.961,-104.685 -57.146,-141.78 16.81,-37.087 70.711,-53.652 144.267,-50.46 75.197,3.268 170.355,27.337 267.654,71.439 l 0.008,0.006 c 97.28,44.096 178.094,99.787 230.109,154.182 50.892,53.218 73.961,104.684 57.146,141.782 C 398.562,47.47 344.661,64.036 271.104,60.841 195.908,57.576 100.748,33.503 3.452,-10.598"
             style="fill:#808080;fill-opacity:1;fill-rule:evenodd;stroke:none"
             id="path80767" />
        </g>
        <g
           id="g80769"
           transform="translate(779.9932,379.5098)">
          <path
             d="m 0,0 c -49.276,70.85 -130.921,148.265 -233.247,215.446 -102.364,67.204 -205.858,111.344 -290.431,128.38 -82.984,16.715 -147.211,7.41 -173.002,-31.878 -25.792,-39.287 -8.795,-101.916 39.538,-171.412 49.275,-70.853 130.92,-148.268 233.248,-215.448 102.365,-67.203 205.859,-111.343 290.432,-128.379 82.983,-16.716 147.207,-7.411 173.001,31.878 C 65.332,-132.125 48.333,-69.495 0,0 M -227.177,224.726 C -123.643,156.753 -40.928,78.268 9.104,6.329 c 50.976,-73.295 68.24,-140.36 39.713,-183.812 -28.528,-43.454 -96.926,-54.276 -184.449,-36.648 -85.931,17.312 -190.835,61.992 -294.331,129.94 -103.535,67.972 -186.25,146.456 -236.284,218.397 -50.975,73.296 -68.24,140.359 -39.712,183.813 28.526,43.453 96.928,54.275 184.448,36.646 85.934,-17.31 190.835,-61.992 294.334,-129.939"
             style="fill:#666666;fill-opacity:1;fill-rule:evenodd;stroke:none"
             id="path80771" />
        </g>
        <g
           id="g80773"
           transform="translate(519.9512,635.2471)">
          <path
             d="m 0,0 c -15.176,-4.234 -30.631,-9.028 -46.294,-14.379 v 11.691 c 15.657,5.272 31.116,10 46.294,14.172 z m 194.127,-197.297 c 10.352,9.142 19.952,18.309 28.747,27.44 v -15.754 c -7.594,-7.505 -15.708,-15.02 -24.312,-22.51 h -4.435 z"
             style="fill:#808080;fill-opacity:1;fill-rule:evenodd;stroke:none"
             id="path80775" />
        </g>
        <g
           id="g80777"
           transform="translate(785.1143,409.6006)">
          <path
             d="m 0,0 c -7.068,-10.144 -16.758,-19.795 -28.747,-28.829 v 14.005 c 11.155,9.366 19.57,19.296 24.845,29.628 H 0 Z m -252.279,179.183 c 27.132,-2.65 53.013,-6.594 77.229,-11.659 v -11.315 c -24.146,5.142 -50.037,9.144 -77.229,11.831 z"
             style="fill:#4d4d4d;fill-opacity:1;fill-rule:evenodd;stroke:none"
             id="path80779" />
        </g>
        <g
           id="g80781"
           transform="translate(325.8247,583.1685)">
          <path
             d="M 0,0 C 24.511,3.866 50.376,6.637 77.227,8.158 V -2.957 C 50.33,-4.497 24.46,-7.302 0,-11.218 Z m 434.973,-67.839 c 12.57,-10.128 22.298,-20.985 28.75,-32.403 v -13.429 h -5.779 c -4.301,10.933 -12.114,21.459 -22.971,31.396 z"
             style="fill:#4d4d4d;fill-opacity:1;fill-rule:evenodd;stroke:none"
             id="path80783" />
        </g>
        <g
           id="g80785"
           transform="translate(152.3882,655.2646)">
          <path
             d="m 0,0 c -47.354,4.048 -82.459,45.717 -78.412,93.068 4.048,47.354 45.715,82.46 93.069,78.414 47.35,-4.047 82.458,-45.716 78.41,-93.069 C 89.019,31.06 47.352,-4.048 0,0"
             style="fill:#4d9ceb;fill-opacity:1;fill-rule:evenodd;stroke:none"
             id="path80787" />
        </g>
        <g
           id="g80789"
           transform="translate(163.5981,661.0234)">
          <path
             d="m 0,0 c -30.666,2.621 -48.391,29.178 -39.587,59.318 8.804,30.14 40.802,52.448 71.469,49.826 C 62.549,106.523 80.274,79.965 71.469,49.826 62.666,19.687 30.667,-2.621 0,0"
             style="fill:#7cbcfc;fill-opacity:1;fill-rule:evenodd;stroke:none"
             id="path80791" />
        </g>
        <g
           id="g80793"
           transform="translate(100.9038,678.1807)">
          <path
             d="m 0,0 c -18.565,17.402 -29.263,42.831 -26.928,70.152 4.049,47.354 45.716,82.46 93.069,78.413 27.311,-2.335 50.552,-17.185 64.553,-38.424 -13.613,12.76 -31.454,21.205 -51.485,22.917 C 31.856,137.104 -9.811,101.997 -13.859,54.645 -15.571,34.603 -10.272,15.583 0,0"
             style="fill:#3a88d6;fill-opacity:1;fill-rule:evenodd;stroke:none"
             id="path80795" />
        </g>
        <g
           id="g80797"
           transform="translate(642.9443,561.1382)">
          <path
             d="m 0,0 c 10.696,26.549 40.892,39.398 67.442,28.701 26.55,-10.7 39.399,-40.895 28.702,-67.444 C 85.445,-65.292 55.249,-78.143 28.699,-67.444 2.148,-56.745 -10.699,-26.549 0,0"
             style="fill:#e83a00;fill-opacity:1;fill-rule:evenodd;stroke:none"
             id="path80799" />
        </g>
        <g
           id="g80801"
           transform="translate(644.2773,553.665)">
          <path
             d="M 0,0 C 6.929,17.194 25.353,22.706 41.149,12.312 56.947,1.916 64.136,-20.45 57.207,-37.644 50.278,-54.839 31.856,-60.35 16.058,-49.955 0.26,-39.559 -6.929,-17.194 0,0"
             style="fill:#ff6836;fill-opacity:1;fill-rule:evenodd;stroke:none"
             id="path80803" />
        </g>
        <g
           id="g80805"
           transform="translate(665.2344,586.731)">
          <path
             d="M 0,0 C 13.302,7.615 29.834,9.279 45.152,3.108 71.702,-7.591 84.551,-37.787 73.854,-64.336 67.683,-79.65 55.022,-90.408 40.321,-94.714 c 9.753,5.583 17.766,14.362 22.293,25.594 10.699,26.549 -2.151,56.743 -28.702,67.443 C 22.676,2.85 10.788,3.16 0,0"
             style="fill:#cc3300;fill-opacity:1;fill-rule:evenodd;stroke:none"
             id="path80807" />
        </g>
        <g
           id="g80809"
           transform="translate(284.1069,224.3965)">
          <path
             d="m 0,0 c 0.28,-61.781 -49.578,-112.09 -111.359,-112.37 -61.783,-0.278 -112.094,49.577 -112.373,111.36 -0.279,61.78 49.579,112.09 111.362,112.37 C -50.59,111.641 -0.278,61.783 0,0"
             style="fill:#94ab13;fill-opacity:1;fill-rule:evenodd;stroke:none"
             id="path80811" />
        </g>
        <g
           id="g80813"
           transform="translate(275.3452,238.2412)">
          <path
             d="m 0,0 c 0.181,-40.013 -32.138,-66.056 -72.188,-58.169 -40.048,7.885 -72.661,46.713 -72.842,86.726 -0.181,40.012 32.138,66.055 72.187,58.17 C -32.796,78.84 -0.181,40.01 0,0"
             style="fill:#bad526;fill-opacity:1;fill-rule:evenodd;stroke:none"
             id="path80815" />
        </g>
        <g
           id="g80817"
           transform="translate(260.4395,155.0674)">
          <path
             d="m 0,0 c -20.368,-26.065 -52.045,-42.881 -87.692,-43.041 -61.782,-0.278 -112.094,49.577 -112.372,111.36 -0.161,35.633 16.358,67.455 42.226,88.056 -14.936,-19.109 -23.789,-43.194 -23.671,-69.329 0.28,-61.78 50.591,-111.639 112.373,-111.358 C -42.99,-24.194 -18.981,-15.114 0,0"
             style="fill:#82970a;fill-opacity:1;fill-rule:evenodd;stroke:none"
             id="path80819" />
        </g>
        <g
           id="g80821"
           transform="translate(574.6729,795.5996)">
          <path
             d="M 0,0 1.474,-4.791 6.264,-6.263 1.474,-7.737 0,-12.528 l -1.474,4.791 -4.792,1.474 4.792,1.472 z"
             style="fill:#ffffff;fill-opacity:1;fill-rule:evenodd;stroke:none"
             id="path80823" />
        </g>
        <g
           id="g80825"
           transform="translate(526.1182,748.6138)">
          <path
             d="m 0,0 2.577,-8.388 8.387,-2.576 -8.387,-2.577 -2.577,-8.388 -2.575,8.388 -8.39,2.577 8.39,2.576 z"
             style="fill:#ffffff;fill-opacity:1;fill-rule:evenodd;stroke:none"
             id="path80827" />
        </g>
        <g
           id="g80829"
           transform="translate(378.8921,778.3721)">
          <path
             d="M 0,0 2.575,-8.387 10.964,-10.964 2.575,-13.54 0,-21.927 l -2.575,8.387 -8.389,2.576 8.389,2.577 z"
             style="fill:#ffffff;fill-opacity:1;fill-rule:evenodd;stroke:none"
             id="path80831" />
        </g>
        <g
           id="g80833"
           transform="translate(281.002,660.9033)">
          <path
             d="M 0,0 1.289,-4.193 5.48,-5.482 1.289,-6.771 0,-10.964 l -1.288,4.193 -4.193,1.289 4.193,1.289 z"
             style="fill:#ffffff;fill-opacity:1;fill-rule:evenodd;stroke:none"
             id="path80835" />
        </g>
        <g
           id="g80837"
           transform="translate(211.3032,612.3496)">
          <path
             d="M 0,0 1.104,-3.594 4.698,-4.698 1.104,-5.802 0,-9.398 l -1.104,3.596 -3.594,1.104 3.594,1.104 z"
             style="fill:#ffffff;fill-opacity:1;fill-rule:evenodd;stroke:none"
             id="path80839" />
        </g>
        <g
           id="g80841"
           transform="translate(178.5469,536.144)">
          <path
             d="M 0,0 1.14,-3.706 4.846,-4.846 1.14,-5.984 0,-9.691 l -1.138,3.707 -3.707,1.138 3.707,1.14 z"
             style="fill:#ffffff;fill-opacity:1;fill-rule:evenodd;stroke:none"
             id="path80843" />
        </g>
        <g
           id="g80845"
           transform="translate(291.1836,429.0996)">
          <path
             d="M 0,0 3.681,-11.981 15.662,-15.663 3.681,-19.344 0,-31.325 l -3.681,11.981 -11.982,3.681 11.982,3.682 z"
             style="fill:#ffffff;fill-opacity:1;fill-rule:evenodd;stroke:none"
             id="path80847" />
        </g>
        <g
           id="g80849"
           transform="translate(709.0762,741.3677)">
          <path
             d="m 0,0 1.841,-5.991 5.99,-1.841 -5.99,-1.84 -1.841,-5.991 -1.838,5.991 -5.99,1.84 5.99,1.841 z"
             style="fill:#ffffff;fill-opacity:1;fill-rule:evenodd;stroke:none"
             id="path80851" />
        </g>
        <g
           id="g80853"
           transform="translate(783.4756,844.7412)">
          <path
             d="M 0,0 2.024,-6.591 8.614,-8.615 2.024,-10.639 0,-17.23 l -2.026,6.591 -6.59,2.024 6.59,2.024 z"
             style="fill:#ffffff;fill-opacity:1;fill-rule:evenodd;stroke:none"
             id="path80855" />
        </g>
        <g
           id="g80857"
           transform="translate(817.1484,717.874)">
          <path
             d="M 0,0 0.736,-2.397 3.133,-3.133 0.736,-3.869 0,-6.265 l -0.736,2.396 -2.397,0.736 2.397,0.736 z"
             style="fill:#ffffff;fill-opacity:1;fill-rule:evenodd;stroke:none"
             id="path80859" />
        </g>
        <g
           id="g80861"
           transform="translate(437.3335,175.9531)">
          <path
             d="m 0,0 2.024,-6.59 6.59,-2.023 -6.59,-2.028 -2.024,-6.586 -2.024,6.586 -6.59,2.028 6.59,2.023 z"
             style="fill:#ffffff;fill-opacity:1;fill-rule:evenodd;stroke:none"
             id="path80863" />
        </g>
        <g
           id="g80865"
           transform="translate(519.5615,130.5312)">
          <path
             d="m 0,0 2.577,-8.387 8.387,-2.575 -8.387,-2.577 -2.577,-8.387 -2.577,8.387 -8.388,2.577 8.388,2.575 z"
             style="fill:#ffffff;fill-opacity:1;fill-rule:evenodd;stroke:none"
             id="path80867" />
        </g>
        <g
           id="g80869"
           transform="translate(659.7412,298.1201)">
          <path
             d="M 0,0 3.864,-12.583 16.444,-16.448 3.864,-20.312 0,-32.891 l -3.865,12.579 -12.58,3.864 12.58,3.865 z"
             style="fill:#ffffff;fill-opacity:1;fill-rule:evenodd;stroke:none"
             id="path80871" />
        </g>
        <g
           id="g80873"
           transform="translate(734.1377,199.4473)">
          <path
             d="M 0,0 1.471,-4.793 6.264,-6.267 1.471,-7.737 0,-12.53 l -1.474,4.793 -4.792,1.47 4.792,1.474 z"
             style="fill:#ffffff;fill-opacity:1;fill-rule:evenodd;stroke:none"
             id="path80875" />
        </g>
        <g
           id="g80877"
           transform="translate(745.1016,64.751)">
          <path
             d="m 0,0 2.575,-8.39 8.387,-2.575 -8.387,-2.577 -2.575,-8.387 -2.577,8.387 -8.387,2.577 8.387,2.575 z"
             style="fill:#ffffff;fill-opacity:1;fill-rule:evenodd;stroke:none"
             id="path80879" />
        </g>
        <g
           id="g80881"
           transform="translate(470.6162,800.8857)">
          <path
             d="M 0,0 1.562,-5.092 6.656,-6.657 1.562,-8.221 0,-13.313 l -1.565,5.092 -5.094,1.564 5.094,1.565 z"
             style="fill:#cccccc;fill-opacity:1;fill-rule:evenodd;stroke:none"
             id="path80883" />
        </g>
        <g
           id="g80885"
           transform="translate(458.8672,729.6206)">
          <path
             d="M 0,0 0.828,-2.696 3.525,-3.524 0.828,-4.352 0,-7.047 l -0.826,2.695 -2.697,0.828 2.697,0.828 z"
             style="fill:#cccccc;fill-opacity:1;fill-rule:evenodd;stroke:none"
             id="path80887" />
        </g>
        <g
           id="g80889"
           transform="translate(608.0527,776.6079)">
          <path
             d="M 0,0 0.92,-2.995 3.916,-3.916 0.92,-4.836 0,-7.831 l -0.92,2.995 -2.996,0.92 2.996,0.921 z"
             style="fill:#cccccc;fill-opacity:1;fill-rule:evenodd;stroke:none"
             id="path80891" />
        </g>
        <g
           id="g80893"
           transform="translate(642.9033,836.126)">
          <path
             d="M 0,0 0.459,-1.498 1.958,-1.957 0.459,-2.417 0,-3.916 l -0.462,1.499 -1.496,0.46 1.496,0.459 z"
             style="fill:#cccccc;fill-opacity:1;fill-rule:evenodd;stroke:none"
             id="path80895" />
        </g>
        <g
           id="g80897"
           transform="translate(349.2295,684.1997)">
          <path
             d="m 0,0 2.488,-8.087 8.086,-2.486 -8.086,-2.484 -2.488,-8.088 -2.483,8.088 -8.086,2.484 8.086,2.486 z"
             style="fill:#cccccc;fill-opacity:1;fill-rule:evenodd;stroke:none"
             id="path80899" />
        </g>
        <g
           id="g80901"
           transform="translate(292.063,800.8857)">
          <path
             d="M 0,0 1.749,-5.691 7.441,-7.44 1.749,-9.189 0,-14.881 l -1.749,5.692 -5.692,1.749 5.692,1.749 z"
             style="fill:#cccccc;fill-opacity:1;fill-rule:evenodd;stroke:none"
             id="path80903" />
        </g>
        <g
           id="g80905"
           transform="translate(745.6855,310.0635)">
          <path
             d="m 0,0 1.841,-5.991 5.99,-1.841 -5.99,-1.84 -1.841,-5.991 -1.841,5.991 -5.99,1.84 5.99,1.841 z"
             style="fill:#cccccc;fill-opacity:1;fill-rule:evenodd;stroke:none"
             id="path80907" />
        </g>
        <g
           id="g80909"
           transform="translate(845.9268,383.6777)">
          <path
             d="m 0,0 1.841,-5.991 5.99,-1.841 -5.99,-1.84 -1.841,-5.991 -1.841,5.991 -5.99,1.84 5.99,1.841 z"
             style="fill:#cccccc;fill-opacity:1;fill-rule:evenodd;stroke:none"
             id="path80911" />
        </g>
        <g
           id="g80913"
           transform="translate(842.7939,649.938)">
          <path
             d="M 0,0 1.473,-4.792 6.266,-6.265 1.473,-7.737 0,-12.531 l -1.472,4.794 -4.792,1.472 4.792,1.473 z"
             style="fill:#cccccc;fill-opacity:1;fill-rule:evenodd;stroke:none"
             id="path80915" />
        </g>
        <g
           id="g80917"
           transform="translate(38.5254,523.0718)">
          <path
             d="M 0,0 0.92,-2.996 3.917,-3.916 0.92,-4.836 0,-7.832 l -0.92,2.996 -2.995,0.92 2.995,0.92 z"
             style="fill:#cc3300;fill-opacity:1;fill-rule:evenodd;stroke:none"
             id="path80919" />
        </g>
        <g
           id="g80921"
           transform="translate(350.2085,847.2842)">
          <path
             d="M 0,0 2.391,-7.788 10.179,-10.18 2.391,-12.573 0,-20.361 l -2.394,7.788 -7.788,2.393 7.788,2.392 z"
             style="fill:#cc3300;fill-opacity:1;fill-rule:evenodd;stroke:none"
             id="path80923" />
        </g>
        <g
           id="g80925"
           transform="translate(586.7109,466.6855)">
          <path
             d="M 0,0 1.287,-4.194 5.481,-5.481 1.287,-6.771 0,-10.962 l -1.288,4.191 -4.193,1.29 4.193,1.287 z"
             style="fill:#cc3300;fill-opacity:1;fill-rule:evenodd;stroke:none"
             id="path80927" />
        </g>
        <g
           id="g80929"
           transform="translate(621.9512,140.9062)">
          <path
             d="M 0,0 2.208,-7.188 9.396,-9.396 2.208,-11.606 0,-18.795 l -2.208,7.189 -7.188,2.21 7.188,2.208 z"
             style="fill:#cc3300;fill-opacity:1;fill-rule:evenodd;stroke:none"
             id="path80931" />
        </g>
        <g
           id="g80933"
           transform="translate(380.748,78.2568)">
          <path
             d="M 0,0 1.84,-5.991 7.831,-7.832 1.84,-9.672 0,-15.663 l -1.84,5.991 -5.991,1.84 5.991,1.841 z"
             style="fill:#cc3300;fill-opacity:1;fill-rule:evenodd;stroke:none"
             id="path80935" />
        </g>
        <g
           id="g80937"
           transform="translate(356.4741,201.9912)">
          <path
             d="M 0,0 1.288,-4.193 5.481,-5.483 1.288,-6.77 0,-10.965 l -1.289,4.195 -4.194,1.287 4.194,1.29 z"
             style="fill:#cc3300;fill-opacity:1;fill-rule:evenodd;stroke:none"
             id="path80939" />
        </g>
        <g
           id="g80941"
           transform="translate(271.896,496.4448)">
          <path
             d="M 0,0 3.128,-10.186 13.312,-13.312 3.128,-16.442 0,-26.626 l -3.13,10.184 -10.185,3.13 10.185,3.126 z"
             style="fill:#cc3300;fill-opacity:1;fill-rule:evenodd;stroke:none"
             id="path80943" />
        </g>
        <g
           id="g80945"
           transform="translate(618.0352,721.9829)">
          <path
             d="M 0,0 1.288,-4.192 5.481,-5.481 1.288,-6.769 0,-10.963 l -1.289,4.194 -4.191,1.288 4.191,1.289 z"
             style="fill:#cc3300;fill-opacity:1;fill-rule:evenodd;stroke:none"
             id="path80947" />
        </g>
        <g
           id="g80949"
           transform="translate(834.1768,501.1436)">
          <path
             d="m 0,0 2.395,-7.788 7.787,-2.391 -7.787,-2.394 -2.395,-7.788 -2.391,7.788 -7.791,2.394 7.791,2.391 z"
             style="fill:#cc3300;fill-opacity:1;fill-rule:evenodd;stroke:none"
             id="path80951" />
        </g>
        <g
           id="g80953"
           transform="translate(824.7803,155.0039)">
          <path
             d="M 0,0 3.865,-12.581 16.445,-16.448 3.865,-20.312 0,-32.893 l -3.864,12.581 -12.58,3.864 12.58,3.867 z"
             style="fill:#cc3300;fill-opacity:1;fill-rule:evenodd;stroke:none"
             id="path80955" />
        </g>
        <g
           id="g80957"
           transform="translate(628.5107,851.9824)">
          <path
             d="M 0,0 3.383,-11.009 14.393,-14.392 3.383,-17.773 0,-28.782 l -3.381,11.009 -11.01,3.381 11.01,3.383 z"
             style="fill:#2dc0ca;fill-opacity:1;fill-rule:evenodd;stroke:none"
             id="path80959" />
        </g>
        <g
           id="g80961"
           transform="translate(702.6113,811.2612)">
          <path
             d="M 0,0 0.92,-2.996 3.918,-3.917 0.92,-4.837 0,-7.833 l -0.92,2.996 -2.996,0.92 2.996,0.921 z"
             style="fill:#2dc0ca;fill-opacity:1;fill-rule:evenodd;stroke:none"
             id="path80963" />
        </g>
        <g
           id="g80965"
           transform="translate(166.1729,598.251)">
          <path
             d="M 0,0 3.313,-10.783 14.096,-14.097 3.313,-17.409 0,-28.193 l -3.313,10.784 -10.783,3.312 10.783,3.314 z"
             style="fill:#2dc0ca;fill-opacity:1;fill-rule:evenodd;stroke:none"
             id="path80967" />
        </g>
        <g
           id="g80969"
           transform="translate(279.7271,82.9551)">
          <path
             d="M 0,0 1.288,-4.193 5.481,-5.482 1.288,-6.771 0,-10.965 l -1.29,4.194 -4.191,1.289 4.191,1.289 z"
             style="fill:#2dc0ca;fill-opacity:1;fill-rule:evenodd;stroke:none"
             id="path80971" />
        </g>
        <g
           id="g80973"
           transform="translate(157.5576,45.3633)">
          <path
             d="m 0,0 2.761,-8.983 8.986,-2.763 -8.986,-2.761 -2.761,-8.986 -2.761,8.986 -8.986,2.761 8.986,2.763 z"
             style="fill:#2dc0ca;fill-opacity:1;fill-rule:evenodd;stroke:none"
             id="path80975" />
        </g>
        <g
           id="g80977"
           transform="translate(67.5,87.6523)">
          <path
             d="M 0,0 1.472,-4.789 6.263,-6.263 1.472,-7.736 0,-12.529 l -1.474,4.793 -4.791,1.473 4.791,1.474 z"
             style="fill:#2dc0ca;fill-opacity:1;fill-rule:evenodd;stroke:none"
             id="path80979" />
        </g>
        <g
           id="g80981"
           transform="translate(503.7002,89.2207)">
          <path
             d="m 0,0 2.391,-7.788 7.788,-2.394 -7.788,-2.391 -2.391,-7.79 -2.394,7.79 -7.788,2.391 7.788,2.394 z"
             style="fill:#2dc0ca;fill-opacity:1;fill-rule:evenodd;stroke:none"
             id="path80983" />
        </g>
        <g
           id="g80985"
           transform="translate(614.9023,59.4609)">
          <path
             d="M 0,0 3.498,-11.383 14.88,-14.88 3.498,-18.375 0,-29.76 l -3.495,11.385 -11.385,3.495 11.385,3.497 z"
             style="fill:#2dc0ca;fill-opacity:1;fill-rule:evenodd;stroke:none"
             id="path80987" />
        </g>
        <g
           id="g80989"
           transform="translate(597.6748,275.6025)">
          <path
             d="m 0,0 2.761,-8.986 8.986,-2.761 -8.986,-2.761 -2.761,-8.985 -2.761,8.985 -8.986,2.761 8.986,2.761 z"
             style="fill:#2dc0ca;fill-opacity:1;fill-rule:evenodd;stroke:none"
             id="path80991" />
        </g>
      </g>
    </g>
  </g>
</svg>
