<?xml version="1.0" encoding="utf-8"?>

<!DOCTYPE svg PUBLIC "-//W3C//DTD SVG 1.0//EN" "http://www.w3.org/TR/2001/REC-SVG-20010904/DTD/svg10.dtd">
<!-- Uploaded to: SVG Repo, www.svgrepo.com, Generator: SVG Repo Mixer Tools -->
<svg version="1.0" id="Layer_1" xmlns="http://www.w3.org/2000/svg" xmlns:xlink="http://www.w3.org/1999/xlink" 
	 width="800px" height="800px" viewBox="0 0 64 64" enable-background="new 0 0 64 64" xml:space="preserve">
<g>
	<path fill="#394240" d="M32,0C18.148,0,12,23.188,12,32c0,9.656,6.883,17.734,16,19.594V60c0,2.211,1.789,4,4,4s4-1.789,4-4v-8.406
		C45.117,49.734,52,41.656,52,32C52,22.891,46.051,0,32,0z M32,44c-6.617,0-12-5.383-12-12c0-8.812,5.93-24,12-24
		c6.566,0,12,15.891,12,24C44,38.617,38.617,44,32,44z"/>
	<path fill="#B4CCB9" d="M32,44c-6.617,0-12-5.383-12-12c0-8.812,5.93-24,12-24c6.566,0,12,15.891,12,24C44,38.617,38.617,44,32,44z
		"/>
</g>
</svg>